<svg xmlns="http://www.w3.org/2000/svg" viewBox="0 0 32 32" fill="currentColor">
  <!-- Body (running) -->
  <path d="M8 18 C6 16, 7 13, 10 12 C13 11, 18 11, 21 12 C24 13, 25 16, 23 18 C21 20, 13 20, 8 18 Z"/>
  <!-- Head -->
  <path d="M20 11 A4 4 0 1 1 28 11 A4 4 0 1 1 20 11 Z"/>
  <!-- Ear -->
  <path d="M22 8 L21 4.5 L24 7 Z"/>
  <!-- Tail -->
  <path d="M8 16 C5 13, 3 10, 4 7 C5 5, 7 4, 9 6 C10 8, 9 11, 8 14 Z"/>
  <!-- Front legs -->
  <path d="M22 18 L24 23 L22 23 Z"/>
  <path d="M19 18 L17 23 L19 23 Z"/>
  <!-- Back legs -->
  <path d="M11 18 L8 23 L11 23 Z"/>
  <path d="M14 18 L16 23 L14 23 Z"/>
</svg>
