<svg xmlns="http://www.w3.org/2000/svg" viewBox="0 0 32 32" fill="currentColor">
  <!-- Tail -->
  <path d="M6 20 C4 16, 3 12, 5 9 C7 6, 10 5, 12 7 C14 9, 12 12, 10 14 C8 16, 7 18, 6 20 Z"/>
  <!-- Body -->
  <path d="M14 26 C11 26, 9 24, 9 21 C9 18, 11 15, 14 14 C17 13, 20 14, 21 17 C22 20, 21 24, 18 26 Z"/>
  <!-- Head -->
  <path d="M16 11 A5 5 0 1 1 26 11 A5 5 0 1 1 16 11 Z"/>
  <!-- Ear -->
  <path d="M18 7 L17 3 L20 6 Z"/>
  <!-- Paws -->
  <path d="M16 19 A2 1.2 -20 1 1 20 19 A2 1.2 -20 1 1 16 19 Z"/>
  <!-- Feet -->
  <path d="M10.5 26.5 A2.5 1 0 1 1 15.5 26.5 A2.5 1 0 1 1 10.5 26.5 Z"/>
  <path d="M16 26.5 A2 1 0 1 1 20 26.5 A2 1 0 1 1 16 26.5 Z"/>
</svg>
